<mxfile host="65bd71144e">
    <diagram id="C5RBs43oDa-KdzZeNtuy" name="Page-1">
        <mxGraphModel dx="2361" dy="934" grid="1" gridSize="10" guides="1" tooltips="1" connect="1" arrows="1" fold="1" page="1" pageScale="1" pageWidth="827" pageHeight="1169" math="0" shadow="0">
            <root>
                <mxCell id="WIyWlLk6GJQsqaUBKTNV-0"/>
                <mxCell id="WIyWlLk6GJQsqaUBKTNV-1" parent="WIyWlLk6GJQsqaUBKTNV-0"/>
                <mxCell id="WIyWlLk6GJQsqaUBKTNV-2" value="" style="rounded=0;html=1;jettySize=auto;orthogonalLoop=1;fontSize=11;endArrow=block;endFill=0;endSize=8;strokeWidth=1;shadow=0;labelBackgroundColor=none;edgeStyle=orthogonalEdgeStyle;entryX=0.5;entryY=0;entryDx=0;entryDy=0;" parent="WIyWlLk6GJQsqaUBKTNV-1" source="WIyWlLk6GJQsqaUBKTNV-3" target="8kOg8jJ97N1CwXyunNAm-2" edge="1">
                    <mxGeometry relative="1" as="geometry">
                        <mxPoint x="220" y="170" as="targetPoint"/>
                    </mxGeometry>
                </mxCell>
                <mxCell id="WIyWlLk6GJQsqaUBKTNV-3" value="Deploy Contract" style="rounded=1;whiteSpace=wrap;html=1;fontSize=12;glass=0;strokeWidth=1;shadow=0;" parent="WIyWlLk6GJQsqaUBKTNV-1" vertex="1">
                    <mxGeometry x="160" y="80" width="120" height="40" as="geometry"/>
                </mxCell>
                <mxCell id="1" style="edgeStyle=none;html=1;entryX=0.5;entryY=0;entryDx=0;entryDy=0;" edge="1" parent="WIyWlLk6GJQsqaUBKTNV-1" source="8kOg8jJ97N1CwXyunNAm-2" target="0">
                    <mxGeometry relative="1" as="geometry"/>
                </mxCell>
                <mxCell id="8kOg8jJ97N1CwXyunNAm-2" value="User subscribes to ENS renewal with an ENS domain and sets:" style="rounded=1;whiteSpace=wrap;html=1;" parent="WIyWlLk6GJQsqaUBKTNV-1" vertex="1">
                    <mxGeometry x="140" y="230" width="160" height="90" as="geometry"/>
                </mxCell>
                <mxCell id="8kOg8jJ97N1CwXyunNAm-11" value="" style="edgeStyle=orthogonalEdgeStyle;rounded=0;orthogonalLoop=1;jettySize=auto;html=1;" parent="WIyWlLk6GJQsqaUBKTNV-1" source="8kOg8jJ97N1CwXyunNAm-8" target="8kOg8jJ97N1CwXyunNAm-10" edge="1">
                    <mxGeometry relative="1" as="geometry"/>
                </mxCell>
                <mxCell id="8kOg8jJ97N1CwXyunNAm-14" value="" style="edgeStyle=orthogonalEdgeStyle;rounded=0;orthogonalLoop=1;jettySize=auto;html=1;" parent="WIyWlLk6GJQsqaUBKTNV-1" source="8kOg8jJ97N1CwXyunNAm-8" target="8kOg8jJ97N1CwXyunNAm-13" edge="1">
                    <mxGeometry relative="1" as="geometry"/>
                </mxCell>
                <mxCell id="8kOg8jJ97N1CwXyunNAm-8" value="Check Upkeep:&lt;br&gt;checks if the ENS domain expired" style="rounded=1;whiteSpace=wrap;html=1;" parent="WIyWlLk6GJQsqaUBKTNV-1" vertex="1">
                    <mxGeometry x="160" y="660" width="120" height="60" as="geometry"/>
                </mxCell>
                <mxCell id="8kOg8jJ97N1CwXyunNAm-10" value="Do nothing" style="rounded=1;whiteSpace=wrap;html=1;" parent="WIyWlLk6GJQsqaUBKTNV-1" vertex="1">
                    <mxGeometry x="-100" y="555" width="120" height="60" as="geometry"/>
                </mxCell>
                <mxCell id="6" style="edgeStyle=none;html=1;exitX=0.5;exitY=0;exitDx=0;exitDy=0;entryX=0.5;entryY=1;entryDx=0;entryDy=0;" edge="1" parent="WIyWlLk6GJQsqaUBKTNV-1" source="8kOg8jJ97N1CwXyunNAm-13" target="5">
                    <mxGeometry relative="1" as="geometry"/>
                </mxCell>
                <mxCell id="11" style="edgeStyle=none;html=1;exitX=1;exitY=0.5;exitDx=0;exitDy=0;entryX=0.5;entryY=1;entryDx=0;entryDy=0;" edge="1" parent="WIyWlLk6GJQsqaUBKTNV-1" source="8kOg8jJ97N1CwXyunNAm-13" target="9">
                    <mxGeometry relative="1" as="geometry">
                        <mxPoint x="680" y="535" as="targetPoint"/>
                        <Array as="points">
                            <mxPoint x="720" y="535"/>
                        </Array>
                    </mxGeometry>
                </mxCell>
                <mxCell id="8kOg8jJ97N1CwXyunNAm-13" value="Try renewing ENS domain after checking if ENS domain is still owned by address" style="rounded=1;whiteSpace=wrap;html=1;" parent="WIyWlLk6GJQsqaUBKTNV-1" vertex="1">
                    <mxGeometry x="370" y="490" width="200" height="90" as="geometry"/>
                </mxCell>
                <mxCell id="2" style="edgeStyle=none;html=1;exitX=0.5;exitY=1;exitDx=0;exitDy=0;entryX=0.5;entryY=0;entryDx=0;entryDy=0;" edge="1" parent="WIyWlLk6GJQsqaUBKTNV-1" source="0" target="8kOg8jJ97N1CwXyunNAm-8">
                    <mxGeometry relative="1" as="geometry"/>
                </mxCell>
                <mxCell id="0" value="&lt;ul&gt;&lt;li&gt;ENS domain name&lt;/li&gt;&lt;li&gt;Deposit amount&lt;/li&gt;&lt;li&gt;Renewal duration&lt;/li&gt;&lt;/ul&gt;" style="rounded=1;whiteSpace=wrap;html=1;arcSize=12;align=left;" vertex="1" parent="WIyWlLk6GJQsqaUBKTNV-1">
                    <mxGeometry x="130" y="400" width="180" height="70" as="geometry"/>
                </mxCell>
                <mxCell id="5" value="&lt;div style=&quot;&quot;&gt;Renew ENS domain&lt;/div&gt;" style="rounded=1;whiteSpace=wrap;html=1;arcSize=12;align=center;" vertex="1" parent="WIyWlLk6GJQsqaUBKTNV-1">
                    <mxGeometry x="400" y="260" width="140" height="70" as="geometry"/>
                </mxCell>
                <mxCell id="8" value="Owner and funded" style="text;html=1;align=center;verticalAlign=middle;resizable=0;points=[];autosize=1;strokeColor=none;fillColor=none;rotation=-90;" vertex="1" parent="WIyWlLk6GJQsqaUBKTNV-1">
                    <mxGeometry x="400" y="410" width="120" height="30" as="geometry"/>
                </mxCell>
                <mxCell id="9" value="&lt;div style=&quot;&quot;&gt;Revert&lt;/div&gt;" style="rounded=1;whiteSpace=wrap;html=1;arcSize=12;align=center;" vertex="1" parent="WIyWlLk6GJQsqaUBKTNV-1">
                    <mxGeometry x="650" y="350" width="140" height="70" as="geometry"/>
                </mxCell>
                <mxCell id="12" value="Not owner &lt;br&gt;or&lt;br&gt;&amp;nbsp;not funded" style="text;html=1;align=center;verticalAlign=middle;resizable=0;points=[];autosize=1;strokeColor=none;fillColor=none;rotation=0;" vertex="1" parent="WIyWlLk6GJQsqaUBKTNV-1">
                    <mxGeometry x="610" y="470" width="80" height="60" as="geometry"/>
                </mxCell>
            </root>
        </mxGraphModel>
    </diagram>
</mxfile>
